<?xml version="1.0" encoding="utf-8"?>
<!-- Generator: Adobe Illustrator 22.1.0, SVG Export Plug-In . SVG Version: 6.00 Build 0)  -->
<svg version="1.1" xmlns="http://www.w3.org/2000/svg" xmlns:xlink="http://www.w3.org/1999/xlink" x="0px" y="0px"
	 viewBox="0 0 734 410" style="enable-background:new 0 0 734 410;" xml:space="preserve">
<style type="text/css">
	.st0{fill:#F4F4F4;}
	.st1{filter:url(#Adobe_OpacityMaskFilter);}
	.st2{mask:url(#SVGID_1_);}
	.st3{fill:#CCCCCC;}
	.st4{fill:#926EB6;}
	.st5{fill:#DBDADA;}
	.st6{fill:#B79ECE;}
	.st7{fill:none;stroke:#B79ECE;stroke-width:4;stroke-linecap:round;stroke-linejoin:round;stroke-miterlimit:10;}
	.st8{fill:none;stroke:#EFEFEF;stroke-width:3.3822;stroke-linecap:round;stroke-linejoin:round;stroke-miterlimit:10;}
	.st9{fill:none;stroke:#EFEFEF;stroke-width:4;stroke-linecap:round;stroke-linejoin:round;stroke-miterlimit:10;}
	.st10{fill:none;stroke:#EFEFEF;stroke-width:2.5368;stroke-linecap:round;stroke-linejoin:round;stroke-miterlimit:10;}
	.st11{display:none;}
	.st12{display:inline;fill:#220B38;}
	.st13{display:inline;fill:#370A63;}
	.st14{display:inline;fill:#4A0D85;}
	.st15{display:inline;fill:#6E3D9D;}
	.st16{display:inline;fill:#926EB6;}
	.st17{display:inline;fill:#B79ECE;}
	.st18{display:inline;fill:#DBCFE7;}
	.st19{display:inline;}
	.st20{display:inline;fill:#333333;}
	.st21{display:inline;fill:#666666;}
	.st22{display:inline;fill:#999999;}
	.st23{display:inline;fill:#CCCCCC;}
	.st24{display:inline;fill:#DBDADA;}
</style>
<g id="Layer_1">
	<g>
		<path class="st0" d="M551.4,300.8c-3.3-46.3-41.9-82.8-89.1-82.7c-7,0-13.8,0.8-20.3,2.4c-22.8-23.5-54.8-38.2-90.1-38.1
			c-56.2,0.1-103.6,37.2-119.3,88.2c-42.1,6.2-75.7,38.7-83.6,80.2l85.7-0.2l110.7-0.2l39-0.1l44.6-0.1l40.7-0.1l71-0.1l55.4-0.1
			C588.1,328.3,572,310.7,551.4,300.8z"/>
		<defs>
			<filter id="Adobe_OpacityMaskFilter" filterUnits="userSpaceOnUse" x="294.4" y="94.1" width="190.7" height="299.1">
				<feFlood  style="flood-color:white;flood-opacity:1" result="back"/>
				<feBlend  in="SourceGraphic" in2="back" mode="normal"/>
			</filter>
		</defs>
		<mask maskUnits="userSpaceOnUse" x="294.4" y="94.1" width="190.7" height="299.1" id="SVGID_1_">
			<g class="st1">
				<rect x="114.7" y="348.8" width="507.8" height="207.9"/>
			</g>
		</mask>
		<g class="st2">
			<g>
				<path class="st3" d="M465.1,389.7c-0.1-0.1-0.2-0.2-0.3-0.3C464.9,389.5,465,389.6,465.1,389.7z"/>
				<path class="st3" d="M464.3,389c-3.1-2.4-11.7-9-22.6-17.3C452.5,380,461.2,386.6,464.3,389z"/>
				<path class="st3" d="M464.8,389.4c-0.1-0.1-0.3-0.2-0.4-0.3C464.5,389.2,464.6,389.3,464.8,389.4z"/>
				<path class="st3" d="M465.3,389.8c0,0-0.1-0.1-0.2-0.2C465.2,389.8,465.3,389.8,465.3,389.8z"/>
				<path class="st3" d="M465.5,390C465.5,389.9,465.4,389.9,465.5,390C465.4,389.9,465.5,389.9,465.5,390z"/>
				<path class="st3" d="M349,227.8c20.6,15.7,39.2,30,39.5,30.5c2,4.3-10.2,20.9-13.8,24.5c-3.6,3.6-20.3,15.7-24.6,13.6
					c-0.5-0.3-17.2-22-34.4-44.5l0,0c8.1,10.6,16.1,21.1,22.3,29.2l9,11.2c0,0,14.9-6.6,14.9-6.6l-29.2-37.3v-19.2L349,227.8z"/>
				<path class="st3" d="M466.9,391.1c-0.2-0.1-0.4-0.3-0.6-0.4C466.5,390.8,466.7,391,466.9,391.1z"/>
				<path class="st3" d="M380.7,304.5L484.3,386c-0.6,1.4-1.4,2.7-2.5,3.8c0,0-0.1,0.1-0.1,0.1c0,0,0.1-0.1,0.1-0.1
					c4.5-4.5,4.6-11.8,0.2-16.2c-0.9-0.9-70.9-93.3-72-93.9c-4.3-2-20.9,10.2-24.5,13.7c-3.6,3.6-15.7,20.3-13.6,24.5
					c0.2,0.3,8,6.4,19,14.9l-16.6-13.5L380.7,304.5z"/>
				<path class="st3" d="M472.6,393.1c-1.9-0.1-3.8-0.7-5.5-1.9c3.9,2.6,9,2.6,13-0.1c-1.7,1.2-3.7,1.8-5.7,2H472.6z"/>
				<path class="st3" d="M441.1,371.3c-0.1-0.1-0.2-0.2-0.4-0.3C440.8,371.1,441,371.2,441.1,371.3z"/>
				<path class="st3" d="M480.9,390.5c-0.2,0.2-0.5,0.4-0.8,0.6C480.4,390.9,480.7,390.7,480.9,390.5z"/>
				<path class="st4" d="M441.7,371.7c-0.2-0.2-0.4-0.3-0.6-0.5C441.3,371.4,441.5,371.6,441.7,371.7z"/>
				<path class="st4" d="M466.3,390.7c-0.3-0.2-0.5-0.5-0.8-0.7C465.7,390.2,466,390.5,466.3,390.7z"/>
				<path class="st4" d="M480.1,391.2C480.1,391.1,480.1,391.1,480.1,391.2C480.1,391.1,480.1,391.1,480.1,391.2z"/>
				<path class="st4" d="M467.1,391.3c-0.1-0.1-0.1-0.1-0.2-0.2C466.9,391.2,467,391.2,467.1,391.3z"/>
				<path class="st4" d="M465.4,389.9C465.4,389.9,465.4,389.9,465.4,389.9C465.4,389.9,465.4,389.9,465.4,389.9z"/>
				<path class="st4" d="M464.8,389.4C464.8,389.4,464.8,389.4,464.8,389.4C464.8,389.4,464.8,389.4,464.8,389.4z"/>
				<path class="st4" d="M390.8,332.9c14.4,11,34.2,26.2,49.9,38.1C425.1,359,405.2,343.9,390.8,332.9L390.8,332.9z"/>
				<path class="st4" d="M464.3,389C464.3,389,464.3,389,464.3,389C464.3,389,464.3,389,464.3,389z"/>
				<path class="st4" d="M465.2,389.7C465.1,389.7,465.1,389.7,465.2,389.7C465.1,389.7,465.1,389.7,465.2,389.7z"/>
				<path class="st4" d="M481.6,389.9c-0.2,0.2-0.4,0.4-0.7,0.6C481.1,390.3,481.4,390.1,481.6,389.9z"/>
				<path class="st4" d="M315.7,251.9c8.1,10.6,16.1,21.1,22.3,29.2l9,11.2c0,0,14.9-6.6,14.9-6.6l-29.2-37.3v6.8L315.7,251.9z"/>
				<path class="st4" d="M480.9,390.5c0.2-0.2,0.5-0.4,0.7-0.6c0,0,0.1-0.1,0.1-0.1c1.1-1.1,2-2.4,2.5-3.8l-103.6-81.5l-6.5,14.9
					l16.6,13.5c14.4,11.1,34.3,26.2,49.9,38.2c0.1,0.1,0.2,0.2,0.4,0.3c0.2,0.2,0.4,0.3,0.6,0.5c10.8,8.3,19.5,14.9,22.6,17.3
					c0,0,0,0,0.1,0c0.2,0.1,0.3,0.2,0.4,0.3c0,0,0,0,0,0c0.1,0.1,0.3,0.2,0.3,0.3c0,0,0,0,0,0c0.1,0.1,0.1,0.1,0.2,0.2c0,0,0,0,0,0
					c0,0,0.1,0.1,0.1,0.1c0.3,0.3,0.5,0.5,0.8,0.7c0.2,0.2,0.4,0.3,0.6,0.4c0.1,0.1,0.1,0.1,0.2,0.2c1.7,1.1,3.6,1.7,5.5,1.9h1.7
					c2-0.2,4-0.8,5.7-2c0,0,0,0,0.1-0.1C480.4,390.9,480.7,390.7,480.9,390.5z"/>
				<path class="st3" d="M354.5,96.3l-27.9,77.1l16.3-10.2l8.5,13.6l1.3-0.5c3-31.9,6.2-67.5,6.3-68.2
					C360.1,103.5,358.1,98.9,354.5,96.3z"/>
				<path class="st4" d="M350.2,94.4c-6.3-1.4-12.5,2.3-13.9,8.5c0,0,0,0,0,0c0,0,0,0,0,0.1c0,0,0,0.1,0,0.1c0,0,0,0,0,0
					c-0.3,0.8-1.1,3.1-2.4,6.5c-0.1,0.2-0.1,0.3-0.2,0.5c-0.1,0.2-0.1,0.3-0.2,0.5c-0.3,0.8-0.7,1.7-1,2.7c0,0.1,0,0.1-0.1,0.2
					c-4.2,11.1-11.1,29.4-17.8,47.3l6.2,16.2l5.7-3.6l27.9-77.1C353.2,95.4,351.8,94.8,350.2,94.4z"/>
			</g>
			<g>
				<path class="st4" d="M435.5,238.7c0.4,1.3,29.3,14,30.3,15c0.1,0.1,8.2,3.2,11.3,0.1c3.1-3.1,0.2-11-0.1-11.2
					c-1.1-1.1-16.6-27.2-18-27.5c-2.6-0.7-5.5,0-7.6,2C449.4,219.1,434.8,236,435.5,238.7z M414.3,202.3c1,1,13.7,29.9,15,30.3
					c2.7,0.7,19.6-13.9,21.6-16c2-2,2.7-4.9,2-7.6c-0.3-1.3-26.5-16.9-27.5-17.9c-0.2-0.2-8.2-3.2-11.3-0.1
					C411.2,194.1,414.2,202.2,414.3,202.3z"/>
				<path class="st4" d="M414.3,191c-3.1,3.1,0,11.1,0.1,11.2c1,1,12.6,27.3,14.8,30l23.1-23.1l-3.3-3.3c-7.5-5-22.6-14-23.4-14.8
					C425.3,190.8,417.3,187.9,414.3,191z"/>
				<path class="st5" d="M299.8,368.3c-11.1-11.2-2.9-37.4,7.9-48.3c10.9-10.9,152.4-134.4,163.5-123.3
					c11.1,11.1-112.3,152.8-123.2,163.7C337.2,371.2,310.9,379.4,299.8,368.3z"/>
				<path class="st6" d="M356.2,311.9c-4.3-4.3-3-12.5,2.9-18.4c5.9-5.9,14.2-7.2,18.5-2.9c4.3,4.3,3,12.5-2.9,18.4
					C368.7,314.8,360.5,316.2,356.2,311.9z"/>
				<path class="st4" d="M299.8,368.3c8.7,8.7,26.7,5.6,39.4-1.5l-1.1,0c-7.2-4.1-14.1-9.3-20.2-15.5c-6.2-6.2-11.3-13-15.5-20.2
					l-0.8-2.6C294.3,341.1,290.9,359.5,299.8,368.3z"/>
			</g>
		</g>
		<circle class="st7" cx="239.1" cy="189.6" r="14.5"/>
		<circle class="st7" cx="415.7" cy="88.5" r="12.3"/>
		<line class="st7" x1="278.9" y1="20.8" x2="278.9" y2="45.4"/>
		<line class="st7" x1="291.3" y1="33.1" x2="266.6" y2="33.1"/>
		<g>
			<circle class="st6" cx="57.7" cy="271" r="36.4"/>
			<circle class="st6" cx="57.7" cy="221.1" r="24.5"/>
			<polyline class="st8" points="57.7,237.2 57.7,276.1 57.7,348.8 			"/>
			<line class="st8" x1="73.8" y1="258.7" x2="57.7" y2="276.1"/>
		</g>
		<path class="st6" d="M700.5,349.2c0-13.2-10.7-23.9-23.9-23.9s-23.9,10.7-23.9,23.9h19.1c0-18-14.6-32.7-32.7-32.7
			s-32.7,14.6-32.7,32.7"/>
		<path class="st6" d="M49.8,349.2c0-8.6,7-15.6,15.6-15.6s15.6,7,15.6,15.6H68.6c0-11.8,9.5-21.3,21.3-21.3s21.3,9.5,21.3,21.3"/>
		<path class="st6" d="M98,348.8c0-7,5.7-12.7,12.7-12.7c7,0,12.7,5.7,12.7,12.7h-10.1"/>
		<line class="st9" x1="33.2" y1="348.8" x2="712.6" y2="348.8"/>
		<g>
			<circle class="st6" cx="587.9" cy="290.5" r="27.3"/>
			<circle class="st6" cx="587.9" cy="253" r="18.4"/>
			<polyline class="st10" points="587.9,265.1 587.9,294.3 587.9,348.8 			"/>
			<line class="st10" x1="600" y1="281.2" x2="587.9" y2="294.3"/>
		</g>
	</g>
</g>
<g id="Layer_2" class="st11">
</g>
</svg>
