<svg xmlns="http://www.w3.org/2000/svg" viewBox="0 0 344.76 70.22"><title>Asset 1</title><g id="Layer_2" data-name="Layer 2"><g id="Layer_1-2" data-name="Layer 1"><path d="M67.13,27.52h4.56V46.66a28.77,28.77,0,0,1-8.86,5.05,29.77,29.77,0,0,1-10.28,1.83A27.24,27.24,0,0,1,29,40.23a25.63,25.63,0,0,1-3.67-13.38A25.23,25.23,0,0,1,29,13.54,26.7,26.7,0,0,1,39,3.93,27.66,27.66,0,0,1,52.77.37,29.09,29.09,0,0,1,63.05,2.24a28,28,0,0,1,8.79,5.24l-3,3.66a22.93,22.93,0,0,0-7.41-4.6,24,24,0,0,0-8.67-1.6A21.76,21.76,0,0,0,41.63,7.89a22.26,22.26,0,0,0-8.08,8,21.11,21.11,0,0,0-3,11,21.38,21.38,0,0,0,3,11.1,22.34,22.34,0,0,0,19.29,11,23.24,23.24,0,0,0,7.45-1.24,25.93,25.93,0,0,0,6.84-3.47Z" style="fill:#fff"/><path d="M114.39,19.56q4.78,5.79,4.41,15.59H86.12a15.05,15.05,0,0,0,4.64,10.13,14.3,14.3,0,0,0,10.17,3.85,17.93,17.93,0,0,0,6.95-1.34A15.93,15.93,0,0,0,113.42,44l2.84,2.84a19.44,19.44,0,0,1-6.84,4.75,22.32,22.32,0,0,1-8.79,1.69,20.06,20.06,0,0,1-10.09-2.51,17.89,17.89,0,0,1-6.92-7A20.67,20.67,0,0,1,81.11,33.5a20.73,20.73,0,0,1,2.51-10.21,17.83,17.83,0,0,1,6.92-7,19.76,19.76,0,0,1,9.94-2.51Q109.6,13.76,114.39,19.56Zm-.07,11.7a14.33,14.33,0,0,0-4.08-9.76,13.25,13.25,0,0,0-9.68-3.63,14,14,0,0,0-9.88,3.67,14.68,14.68,0,0,0-4.56,9.72Z" style="fill:#fff"/><path d="M148.27,50.4a16,16,0,0,1-8.68,2.92,9.28,9.28,0,0,1-7.1-2.77q-2.62-2.76-2.62-8.3V18.92h-5.61L124.19,15h5.68V4.94h5V15L147.59,15v4H134.88V41.43q0,7.26,5.39,7.25a12.82,12.82,0,0,0,6.5-2.09Z" style="fill:#fff"/><path d="M175.9,0H185l20.19,53.1H194.59l-4.93-13.24H171.11L166.25,53.1H155.63Zm11.89,32.61-7.33-20.87-7.63,20.87Z" style="fill:#fff"/><path d="M255.47,13.91H265L248.59,53.1h-8.23l-6.73-17.2L227,53.1h-8.23l-16.3-39.19h9.42l11.67,29.76L228.32,31l-6.88-17h8.08l4.11,12,4.19-12h8.08l-6.81,17,4.71,12.71Z" style="fill:#fff"/><path d="M278.58,53.84a14.89,14.89,0,0,1-5.31-.93A12.62,12.62,0,0,1,269,50.29a12.12,12.12,0,0,1-2.81-3.92,12,12,0,0,1-1-4.94,10.79,10.79,0,0,1,1.24-5.12,11.56,11.56,0,0,1,3.44-4,16.83,16.83,0,0,1,5.27-2.58,22.76,22.76,0,0,1,6.73-.94,28.93,28.93,0,0,1,5.12.45,20.9,20.9,0,0,1,4.45,1.27V28.27a7.85,7.85,0,0,0-2.21-6q-2.21-2.1-6.54-2.1a17.49,17.49,0,0,0-6.13,1.12,28.59,28.59,0,0,0-6.13,3.29l-3.07-6.35a28.94,28.94,0,0,1,16.3-5q8.46,0,13.13,4.15c3.11,2.76,4.67,6.77,4.67,12V41.58a3.53,3.53,0,0,0,.56,2.24,2.47,2.47,0,0,0,1.83.75V53.1a22.88,22.88,0,0,1-4.41.52,6.66,6.66,0,0,1-4.37-1.27A5.49,5.49,0,0,1,293.16,49l-.22-2.17a17.4,17.4,0,0,1-6.36,5.24A18.19,18.19,0,0,1,278.58,53.84Zm2.84-7.32a13,13,0,0,0,4.82-.9,8.89,8.89,0,0,0,3.56-2.39,3.62,3.62,0,0,0,1.64-2.85V35.9a25,25,0,0,0-3.89-1.09,21.22,21.22,0,0,0-4-.41,10.69,10.69,0,0,0-6.35,1.76,5.26,5.26,0,0,0-2.47,4.45,5.36,5.36,0,0,0,1.94,4.22A7.08,7.08,0,0,0,281.42,46.52Z" style="fill:#fff"/><path d="M309.91,60.72a20.28,20.28,0,0,0,2.47.57,14,14,0,0,0,2,.18,4.22,4.22,0,0,0,1.79-.37,3.89,3.89,0,0,0,1.5-1.31A12.59,12.59,0,0,0,319,57.21c.45-1.1.92-2.47,1.42-4.11L305,13.91H315.3l10.62,30.51,9.42-30.51h9.42l-16.45,47a14,14,0,0,1-4.86,6.73,13.65,13.65,0,0,1-8.53,2.62,15.68,15.68,0,0,1-2.43-.19,15.09,15.09,0,0,1-2.58-.63Z" style="fill:#fff"/><circle cx="7.95" cy="45.45" r="7.95" style="fill:#fff"/></g></g></svg>